<svg id="Capa_1" enable-background="new 0 0 512 512" height="512" viewBox="0 0 512 512" width="512" xmlns="http://www.w3.org/2000/svg"><g><ellipse cx="251.78" cy="267.171" fill="#ffcebf" rx="132.763" ry="132.763" transform="matrix(.707 -.707 .707 .707 -115.174 256.288)"/><path d="m172.35 350.053c63.499 36.661 144.696 14.905 181.357-48.595 18.189-31.505 21.992-67.365 13.457-99.982 22.504 39.613 24.017 89.77-.408 132.075-36.661 63.5-117.858 85.256-181.357 48.595-31.994-18.472-53.384-48.251-62.052-81.375 11.274 19.845 27.809 37.046 49.003 49.282z" fill="#ffb09e"/><path d="m214.7 139.706c-14.802 4.305-28.863 11.183-41.469 20.424-60.69-25.555-105.68-34.629-114.026-20.174-12.852 22.261 66.055 91.88 176.245 155.498s209.936 97.145 222.788 74.884c8.346-14.455-22.008-48.88-74.484-88.662 1.7-15.538.626-31.153-3.047-46.125 92.449 67.256 146.705 136.456 127.412 169.872-24.387 42.239-157.034 11.31-296.276-69.081s-232.35-179.803-207.963-222.042c19.293-33.416 106.35-21.029 210.82 25.406z" fill="#fe7d43"/><path d="m332.605 277.556c-3.695-2.134-8.421-.868-10.554 2.827-2.134 3.696-.868 8.421 2.828 10.555l48.027 27.732c.338.195.686.355 1.038.494 2.065-4.836 3.819-9.742 5.273-14.694z" fill="#ffb09e"/><path d="m358.45 292.48c-2.393 4.978-4.788 9.227-7.495 13.516 22.962 13.218 21.883 12.731 22.979 13.165 2.117-4.963 3.886-9.932 5.283-14.689z" fill="#ec806b"/><g fill="#ffb09e"><path d="m254.367 176.594c2.134-3.696.867-8.421-2.828-10.554l-42.523-24.55c-5.573 1.894-11.025 4.159-16.317 6.782.645 1.403 1.71 2.628 3.148 3.459l47.965 27.691c1.217.703 2.545 1.037 3.856 1.037 2.671-.001 5.269-1.387 6.699-3.865z"/><path d="m245.358 233.238-93.229-53.82c-3.391 3.859-6.587 7.95-9.564 12.267.224.164.457.318.703.46l94.365 54.476c1.217.703 2.545 1.037 3.856 1.037 2.67 0 5.268-1.386 6.699-3.865 2.132-3.696.865-8.422-2.83-10.555z"/><g><path d="m429.359 113.039c-4.268 0-7.726-3.459-7.726-7.726v-9.913c0-4.267 3.459-7.726 7.726-7.726s7.726 3.459 7.726 7.726v9.912c.001 4.268-3.458 7.727-7.726 7.727z"/><path d="m459.521 133.289h-9.912c-4.268 0-7.726-3.459-7.726-7.726s3.459-7.726 7.726-7.726h9.912c4.268 0 7.726 3.459 7.726 7.726s-3.458 7.726-7.726 7.726z"/><path d="m429.359 163.451c-4.268 0-7.726-3.459-7.726-7.726v-9.912c0-4.267 3.459-7.726 7.726-7.726s7.726 3.459 7.726 7.726v9.912c.001 4.267-3.458 7.726-7.726 7.726z"/><path d="m409.109 133.289h-9.912c-4.268 0-7.726-3.459-7.726-7.726s3.459-7.726 7.726-7.726h9.912c4.268 0 7.726 3.459 7.726 7.726s-3.459 7.726-7.726 7.726z"/></g></g></g></svg>